<svg viewBox="0 0 110 32" height="32" xmlns="http://www.w3.org/2000/svg">
  <g fill="#ffffff">
    <!-- Octocat -->
    <path d="M16 .4C7.16.4 0 7.56 0 16.4c0 7.08 4.58 13.1 10.94 15.22.8.14 1.1-.34 1.1-.76 0-.38-.02-1.62-.02-2.94-4.46.82-5.4-1.9-5.4-1.9-.74-1.88-1.8-2.38-1.8-2.38-1.48-1 .12-.98.12-.98 1.64.12 2.5 1.68 2.5 1.68 1.46 2.5 3.84 1.78 4.78 1.36.14-1.06.58-1.78 1.04-2.18-3.56-.4-7.3-1.78-7.3-7.92 0-1.76.62-3.2 1.64-4.32-.16-.4-.72-2.02.16-4.2 0 0 1.34-.42 4.4 1.64a15.1 15.1 0 014-.54c1.36 0 2.72.18 4 .54 3.04-2.06 4.38-1.64 4.38-1.64.88 2.18.32 3.8.16 4.2 1.02 1.12 1.64 2.56 1.64 4.32 0 6.16-3.76 7.52-7.34 7.92.6.52 1.14 1.52 1.14 3.06 0 2.2-.02 3.98-.02 4.52 0 .42.28.9 1.12.76C27.42 29.5 32 23.48 32 16.4 32 7.56 24.84.4 16 .4z"/>
    <!-- Text -->
    <text x="40" y="22" font-size="18" font-family="Arial, Helvetica, sans-serif" font-weight="bold">
      GitHub
    </text>
  </g>
</svg>
